<svg width="101" height="100" viewBox="0 0 101 100" fill="none" xmlns="http://www.w3.org/2000/svg">
<rect x="0.47998" width="100" height="100" rx="50" fill="url(#paint0_linear_113_1182)"/>
<path d="M54.8137 50L62.957 58.1433L52.3505 68.75H48.6005V56.2132L40.418 64.3957L37.7663 61.7441L48.6005 50.9099V49.0901L37.7663 38.256L40.418 35.6044L48.6005 43.7868V31.25H52.3505L62.957 41.8566L54.8137 50ZM52.3505 52.8401V63.4468L57.6537 58.1433L52.3505 52.8401ZM52.3505 47.1599L57.6537 41.8566L52.3505 36.5533V47.1599ZM64.5425 52.8125C62.9892 52.8125 61.73 51.5532 61.73 50C61.73 48.4468 62.9892 47.1875 64.5425 47.1875C66.0957 47.1875 67.355 48.4468 67.355 50C67.355 51.5532 66.0957 52.8125 64.5425 52.8125ZM40.1675 52.8125C38.6142 52.8125 37.355 51.5532 37.355 50C37.355 48.4468 38.6142 47.1875 40.1675 47.1875C41.7208 47.1875 42.98 48.4468 42.98 50C42.98 51.5532 41.7208 52.8125 40.1675 52.8125Z" fill="#814900"/>
<defs>
<linearGradient id="paint0_linear_113_1182" x1="50.48" y1="0" x2="50.48" y2="100" gradientUnits="userSpaceOnUse">
<stop stop-color="#FFDCAF"/>
<stop offset="1" stop-color="#D6943D"/>
</linearGradient>
</defs>
</svg>
